<svg id="visual" viewBox="0 0 900 600" width="900" height="600" xmlns="http://www.w3.org/2000/svg" xmlns:xlink="http://www.w3.org/1999/xlink" version="1.1"><rect x="0" y="0" width="900" height="600" fill="#001220"></rect><defs><linearGradient id="grad1_0" x1="33.3%" y1="100%" x2="100%" y2="0%"><stop offset="20%" stop-color="#001220" stop-opacity="1"></stop><stop offset="80%" stop-color="#001220" stop-opacity="1"></stop></linearGradient></defs><defs><linearGradient id="grad2_0" x1="0%" y1="100%" x2="66.7%" y2="0%"><stop offset="20%" stop-color="#001220" stop-opacity="1"></stop><stop offset="80%" stop-color="#001220" stop-opacity="1"></stop></linearGradient></defs><g transform="translate(900, 600)"><path d="M-486.7 0C-430.5 -42.5 -374.3 -85 -359.4 -148.9C-344.5 -212.7 -370.8 -298 -344.2 -344.2C-317.6 -390.4 -238 -397.6 -171.8 -414.8C-105.6 -432.1 -52.8 -459.4 0 -486.7L0 0Z" fill="#125b96"></path></g><g transform="translate(0, 0)"><path d="M486.7 0C482.2 64.9 477.6 129.8 449.7 186.3C421.8 242.7 370.5 290.8 316.8 316.8C263.1 342.8 207 346.7 153.8 371.4C100.6 396.1 50.3 441.4 0 486.7L0 0Z" fill="#125b96"></path></g></svg>